<svg width="701" height="325" viewBox="0 0 701 325" fill="none" xmlns="http://www.w3.org/2000/svg">
<path id="AiArt" d="M158.112 272C154.848 263.36 151.776 254.912 148.896 246.656C146.016 238.208 143.04 229.664 139.968 221.024H49.536L31.392 272H2.304C9.984 250.88 17.184 231.392 23.904 213.536C30.624 195.488 37.152 178.4 43.488 162.272C50.016 146.144 56.448 130.784 62.784 116.192C69.12 101.408 75.744 86.816 82.656 72.416H108.288C115.2 86.816 121.824 101.408 128.16 116.192C134.496 130.784 140.832 146.144 147.168 162.272C153.696 178.4 160.32 195.488 167.04 213.536C173.76 231.392 180.96 250.88 188.64 272H158.112ZM131.904 197.984C125.76 181.28 119.616 165.152 113.472 149.6C107.52 133.856 101.28 118.784 94.752 104.384C88.032 118.784 81.6 133.856 75.456 149.6C69.504 165.152 63.552 181.28 57.6 197.984H131.904ZM240.793 272H214.009V122.24H240.793V272ZM227.257 95.168C222.457 95.168 218.329 93.632 214.873 90.56C211.609 87.296 209.977 82.976 209.977 77.6C209.977 72.224 211.609 68 214.873 64.928C218.329 61.664 222.457 60.032 227.257 60.032C232.057 60.032 236.089 61.664 239.353 64.928C242.809 68 244.537 72.224 244.537 77.6C244.537 82.976 242.809 87.296 239.353 90.56C236.089 93.632 232.057 95.168 227.257 95.168ZM421.925 272C418.661 263.36 415.589 254.912 412.709 246.656C409.829 238.208 406.853 229.664 403.781 221.024H313.349L295.205 272H266.117C273.797 250.88 280.997 231.392 287.717 213.536C294.437 195.488 300.965 178.4 307.301 162.272C313.829 146.144 320.261 130.784 326.597 116.192C332.933 101.408 339.557 86.816 346.469 72.416H372.101C379.013 86.816 385.637 101.408 391.973 116.192C398.309 130.784 404.645 146.144 410.981 162.272C417.509 178.4 424.133 195.488 430.853 213.536C437.573 231.392 444.773 250.88 452.453 272H421.925ZM395.717 197.984C389.573 181.28 383.429 165.152 377.285 149.6C371.333 133.856 365.093 118.784 358.565 104.384C351.845 118.784 345.413 133.856 339.269 149.6C333.317 165.152 327.365 181.28 321.413 197.984H395.717ZM533.117 119.072C535.421 119.072 538.013 119.264 540.893 119.648C543.965 119.84 546.941 120.224 549.821 120.8C552.701 121.184 555.293 121.664 557.597 122.24C560.093 122.624 561.917 123.008 563.069 123.392L558.461 146.72C556.349 145.952 552.797 145.088 547.805 144.128C543.005 142.976 536.765 142.4 529.085 142.4C524.093 142.4 519.101 142.976 514.109 144.128C509.309 145.088 506.141 145.76 504.605 146.144V272H477.821V128.576C484.157 126.272 492.029 124.16 501.437 122.24C510.845 120.128 521.405 119.072 533.117 119.072ZM613.971 122.24H670.707V144.704H613.971V213.824C613.971 221.312 614.547 227.552 615.699 232.544C616.851 237.344 618.579 241.184 620.883 244.064C623.187 246.752 626.067 248.672 629.523 249.824C632.979 250.976 637.011 251.552 641.619 251.552C649.683 251.552 656.115 250.688 660.915 248.96C665.907 247.04 669.363 245.696 671.283 244.928L676.467 267.104C673.779 268.448 669.075 270.08 662.355 272C655.635 274.112 647.955 275.168 639.315 275.168C629.139 275.168 620.691 273.92 613.971 271.424C607.443 268.736 602.163 264.8 598.131 259.616C594.099 254.432 591.219 248.096 589.491 240.608C587.955 232.928 587.187 224.096 587.187 214.112V80.48L613.971 75.872V122.24Z" fill="white"/>
</svg>
